<svg height="32" viewBox="0 0 34 32" width="34" xmlns="http://www.w3.org/2000/svg"><g fill="none" fill-rule="evenodd"><path d="m1 2c0-.552.452-1 .993-1h30.014c.55 0 .993.447.993 1v22c0 .552-.452 1-.993 1h-30.014c-.55 0-.993-.447-.993-1z" stroke="#474747" stroke-width="2"/><path d="m4 20h26v1h-26zm-1-17h28v1h-28zm0 1h1v17h-1zm27 0h1v17h-1z" fill="#575757"/><path d="m16 22h2v1h-2z" fill="#575757"/><path d="m13 25h8v6h-8z" stroke="#474747" stroke-width="2"/><path d="m10 30h14v2h-14z" fill="#474747"/></g></svg>