<svg enable-background="new 0 0 64 64" height="64" viewBox="0 0 64 64" width="64" xmlns="http://www.w3.org/2000/svg"><g fill="#231f20"><path d="m60 0h-56c-2.211 0-4 1.789-4 4v40c0 2.211 1.789 4 4 4h24v10h-8c-2.209 0-4 1.791-4 4v1c0 .553.447 1 1 1h30c.553 0 1-.447 1-1v-1c0-2.209-1.791-4-4-4h-8v-10h24c2.211 0 4-1.789 4-4v-40c0-2.211-1.789-4-4-4zm-16 60c1.104 0 2 .896 2 2h-28c0-1.104.896-2 2-2zm-10-2h-4v-10h4zm28-14c0 1.104-.896 2-2 2h-56c-1.104 0-2-.896-2-2v-4h60zm0-6h-60v-34c0-1.104.896-2 2-2h56c1.104 0 2 .896 2 2z"/><circle cx="32" cy="43" r="2"/></g></svg>