<svg xmlns="http://www.w3.org/2000/svg" width="1706.667" height="1496" version="1.0" viewBox="0 0 1280 1122"><path d="M43.5 3.9C23.4 9.6 6.7 26.7 1.6 46.6.2 52.2 0 91.7 0 462c0 370.3.2 409.8 1.6 415.4 5.2 20.3 22.7 37.8 43 43 5.6 1.4 29.9 1.6 240.3 1.6H519v5.3c0 7-1.6 19.2-4.6 35.7-6.8 37.1-18.8 74.8-34 106.9l-5.7 12.1h-54.9l.4 12.4c.3 12 .4 12.6 3.3 16.7 1.7 2.4 5 5.7 7.4 7.4l4.3 3h409.6l4.3-3c2.4-1.7 5.7-5 7.4-7.4 2.9-4.1 3-4.7 3.3-16.7l.4-12.4h-54.9l-5.7-12.1c-15.2-32.1-27.2-69.8-34-106.9-3-16.5-4.6-28.7-4.6-35.7V922h234.1c210.4 0 234.7-.2 240.3-1.6 20.3-5.2 37.8-22.7 43-43 1.4-5.6 1.6-45.1 1.6-415.4 0-370.3-.2-409.8-1.6-415.4-5.2-20.3-22.7-37.8-43-43-5.6-1.5-60.7-1.6-596-1.5-555.7 0-590.2.1-595.9 1.8zm1181 19.1c9.5 1.4 16.5 4.9 23.1 11.4 6.5 6.6 10 13.6 11.4 23.1.6 4.6 1 123.7 1 345.7V742H20V403.2c0-222 .4-341.1 1-345.7C22.4 48 25.9 41 32.4 34.4c6.4-6.3 13.8-10.1 22.2-11.3 8.7-1.3 1161.2-1.3 1169.9-.1zm35.5 782.7c0 30.7-.5 56.8-1 60.8-1.4 9.5-4.9 16.5-11.4 23.1-6.6 6.5-13.6 10-23.1 11.4-9.7 1.3-1159.3 1.3-1169 0-9.5-1.4-16.5-4.9-23.1-11.4-6.5-6.6-10-13.6-11.4-23.1-.5-4-1-30.1-1-60.8V752h1240v53.7zM750 927.9c0 14.6 6.8 52.5 13.9 77.8 7.5 26.3 16.8 51.6 25.3 68.5l3.8 7.8H640.5c-103.5 0-152.5-.3-152.5-1 0-.6 1.5-4.1 3.4-7.8 18-36.1 36-102.1 38.3-140.5l.6-10.7H750v5.9zm99.5 168.8c-.9 6.2-3.3 10.2-7.5 12.8-3.5 2-4.2 2-202 2s-198.5 0-202-2c-4.2-2.6-6.6-6.6-7.5-12.8l-.7-4.7h420.4l-.7 4.7z"/><path d="M87.3 63.5c-10 3.1-19 11.2-24.1 21.5l-2.7 5.5v583l2.9 6c3.8 7.7 11.4 15.3 19.1 19.1l6 2.9h1103l6-2.9c7.7-3.8 15.3-11.4 19.1-19.1l2.9-6v-583l-2.9-6c-3.8-7.7-11.4-15.3-19.1-19.1l-6-2.9-550-.2c-454.9-.1-550.7.1-554.2 1.2zM1189 73.9c5.8 2.4 11.8 6.9 14.8 11.4 6.1 8.9 5.7-13.4 5.7 296.7 0 240.7-.2 285.1-1.4 288.5-3.2 9.1-10.5 16.4-19.6 19.6-3.4 1.2-85.4 1.4-548.5 1.4s-545.1-.2-548.5-1.4c-8.8-3-16-10.1-19.6-19.1-1.2-3-1.4-45.6-1.7-284.5-.1-176.2.1-283.3.7-287.3C73.2 84.6 82 75.4 96 73c2.5-.4 248.6-.7 547-.6 464 .1 543 .3 546 1.5z"/></svg>