<svg xmlns="http://www.w3.org/2000/svg" width="62" height="35.2" version="1.0" viewBox="0 0 465 264"><path d="M46.1 2c-4.4 1-8.1 3.9-10.6 8.1-2 3.3-2 5.4-2.3 113.6L33 234H18c-12 0-15.2.3-15.6 1.4-.8 2.2 3.5 15.7 6.3 19.4 1.3 1.8 4.2 4.1 6.3 5.2 3.9 2 6.2 2 218 2s214.1 0 218-2c2.1-1.1 5-3.4 6.3-5.2 2.8-3.7 7.1-17.2 6.3-19.4-.4-1.1-3.6-1.4-15.6-1.4h-15l-.2-110.3c-.3-108.2-.3-110.3-2.3-113.6-2.6-4.4-6.2-7-11.1-8.1C414.6.8 50.9.9 46.1 2zm371.7 14.2c.9.9 1.2 26.6 1.2 109.5V234H267.2l-1.1 3-1 3-31.8-.2-31.8-.3-1.3-2.8-1.3-2.7H47V125.7c0-82.9.3-108.6 1.2-109.5 1.7-1.7 367.9-1.7 369.6 0z"/></svg>