<svg xmlns="http://www.w3.org/2000/svg" width="60" height="38.475" version="1.0" viewBox="0 0 892 572"><path d="M45.7 2.1C40.7 5 41-8.9 41 244.5V480H24.5c-18.4 0-21.3.7-23.4 5.8-.9 2.2-1.2 10-.9 28.3l.3 25.4 3.4 7.3c4.3 9.2 13.2 17.9 21.8 21.4l5.8 2.3 411 .3c290.5.1 412.5-.1 416.2-.9 12.9-2.6 23.8-11.3 29.6-23.7l3.2-6.7.3-25.4c.3-18.3 0-26.1-.9-28.3-2.1-5.2-4.8-5.8-25.4-5.8H847V244.5C847-10 847.3 4.8 842.1 2 839.4.6 48.2.6 45.7 2.1zM827 251v229H670.5c-167.7 0-160.8-.2-163.1 4.7-.4 1-1 5.8-1.4 10.8l-.5 9h-119l-.2-7c-.4-11.3-1-13.4-4.6-15.5-3.1-2-6.4-2-160.9-2H63V22h764v229zM365 503c0 7.4 5.8 15.6 13.5 19.1 3.7 1.7 8 1.9 67.5 1.9 59.6 0 63.7-.2 67.5-1.9 7.9-3.6 13.5-11.5 13.5-19.1v-4h341.1l-.3 17.8c-.3 17.7-.3 17.9-3.1 21.9-1.5 2.2-4.6 5-7 6.4l-4.2 2.4h-819l-4.7-2.8c-2.9-1.7-5.7-4.4-7.3-7.1-2.4-4.1-2.5-4.9-2.5-21.4V499h345v4z"/><path d="M422.8 39c-2.8 2.8-3 3.5-2.6 8.1.4 3.4 1.2 5.8 2.7 7.2 2 2.1 3.2 2.2 22.2 2.5l20 .3 3.4-3.4c4.7-4.7 4.9-10.4.6-14.8l-2.9-2.9h-40.4l-3 3z"/></svg>