<svg xmlns="http://www.w3.org/2000/svg" width="60" height="43.504" version="1.0" viewBox="0 0 923 622"><path d="M156.4 2.1C147.7 4.6 138.7 14.3 136 24c-.6 2.2-1 72.4-1 191.5l-.1 188L69.4 480c-36.1 42.1-66.2 77.7-67 79.2-1.9 3.7-1.9 20.6.1 28.1 2.2 8.4 5 13.4 11.1 19.4 6.3 6.4 14.7 10.5 25.6 12.7 6.9 1.4 50.7 1.6 423 1.6 360.8 0 416.2-.2 422.2-1.5 19.6-4.1 33-16.3 37.1-33.6 1.9-8.3 2-23.7.1-26.4-.7-1.1-30.9-36.4-67-78.4L789 404.7l-.2-189.1-.3-189.1-3.3-6.7c-3.9-8-10.2-13.9-17.8-16.8-5.5-2-6.2-2-306.7-1.9-177.4 0-302.5.5-304.3 1zM761.8 24c6.6 4.1 6.2-10.2 6.2 198.9v190l4.9 5.8c2.6 3.2 30.8 35.9 62.4 72.8l57.7 67-215.4.3c-118.5.1-312.6.1-431.3 0l-215.9-.3 62.2-72.3c34.2-39.8 62.5-73.4 62.8-74.5.3-1.2.6-87.7.6-192.2 0-177.4.1-190.2 1.7-192.5.9-1.4 2.4-3 3.3-3.7 1.2-1 66.8-1.2 299.5-1.3 297.2 0 298 0 301.3 2zM902 573.3c0 5.4-2.9 13.5-6 17.1-3.5 3.9-10.1 7-18.5 8.6-4.4.8-114.4 1-419.5.8-384.3-.3-413.8-.4-418.3-2-11.2-3.8-16.7-10.8-17.5-22l-.4-5.8H902v3.3z"/><path d="M430 29.9c-1.6 3.1-1.2 5.9 1.2 7.5 1.9 1.4 6.6 1.6 31.1 1.6 18 0 29.6-.4 30.8-1 2.2-1.2 2.7-6.8.7-8.8-.9-.9-9.4-1.2-32-1.2-29.4 0-30.8.1-31.8 1.9zM176.2 47.2c-1.7 1.7-1.7 357.9 0 359.6.9.9 65.9 1.2 286.5 1.2 281 0 285.2 0 286.3-1.9 1.4-2.7 1.4-355.5 0-358.2-1.1-1.9-5.3-1.9-286.3-1.9-220.6 0-285.6.3-286.5 1.2zM739 227v170H186V57h553v170zM384.8 509.2c-2.4 2-16 28.7-16 31.6 0 5.4-3.5 5.2 93.3 5.2 98.1 0 92.9.3 92.9-5.6 0-2.5-12.1-27.6-14.8-30.7-1.4-1.6-6.4-1.7-77.7-1.7-59.4 0-76.5.3-77.7 1.2zm152 17.8 4.3 8H383l3.1-5.8c1.8-3.1 3.8-6.7 4.6-8l1.3-2.2h140.5l4.3 8z"/></svg>