<svg xmlns="http://www.w3.org/2000/svg" width="80" height="43.731" version="1.0" viewBox="0 0 922 504"><path d="M127.3 2.1c-6.6 2.5-12.3 8.1-15.9 15.5l-2.9 5.9-.3 209.7L108 443H56.2c-45.9 0-52 .2-54.1 1.6-2.2 1.6-2.2 2-1.9 15.3.3 12.3.6 14.1 3 19.3 5.5 11.7 17.3 20 33 23.2 7 1.4 48.3 1.6 423 1.6 401.4 0 415.6-.1 424.3-1.9 19.4-4 30.3-12.7 35.5-28.2 1.8-5.3 2.1-8.1 1.8-16.3-.4-9.3-.5-10-3.1-12.2l-2.8-2.4H812V26.5l-2.9-6.1c-3.9-8.2-8.3-12.9-15.5-16.7L787.5.5 460 .3C135.1.1 132.5.1 127.3 2.1zm659.8 23.6 3.9 4.2V448H653.5c-108.7 0-137.6.3-138.5 1.3-.6.6-2.1 2.8-3.3 4.7l-2.3 3.5-48.8.3c-37.8.2-49.2-.1-50.4-1-.8-.7-2.5-3-3.8-5L404 448H129V239.4c0-190.8.1-208.9 1.6-212 .9-1.9 2.6-4.1 3.8-4.9 1.8-1.3 42.3-1.5 325.4-1.3l323.3.3 4 4.2zM399.9 462.1c1.2 1.6 3.7 3.9 5.4 5 3.1 1.8 5.5 1.9 54.5 1.9 56.7 0 54.6.2 59.8-6.5l2.6-3.5h270.2l2.4 2.2 2.4 2.3 51.4.3c40.9.2 51.4.5 51.4 1.5 0 .7-1.3 3.4-2.9 5.9-3.5 5.5-10.4 9.2-20.1 10.8-4.6.7-128.9 1-421 .8l-414.5-.3-5.9-2.4c-7-2.8-12-7.2-14.1-12.4L20 464H120.7l3.4-2.4 3.4-2.4 135.1-.1 135-.1 2.3 3.1z"/><path d="M454 26.9c-1.9 1.5-2.5 2.9-2.5 6 0 5.4 3.5 9.1 8.4 9.1 7.9 0 12.4-10.3 6.5-14.9-3.4-2.6-9.1-2.7-12.4-.2zM151.8 48.1c-1.7.9-1.8 11.3-1.8 194.9 0 190.7 0 193.9 1.9 195 2.7 1.4 613.5 1.4 616.2 0 1.9-1.1 1.9-4.3 1.9-195s0-193.9-1.9-195c-2.7-1.4-613.9-1.4-616.3.1zM759 243v185H161V58h598v185z"/></svg>