<svg xmlns="http://www.w3.org/2000/svg" width="60" height="38.494" version="1.0" viewBox="0 0 943 605"><path d="M98.5 1C81.9 3.2 67.9 13.2 60.4 28 54.7 39.4 55 23.6 55 285.1v241.7l-12.7.4c-11.3.3-13.5.6-18.5 3-30.1 14-30.8 56.8-1.3 71.4l6 2.9h887l6-2.9c7.6-3.8 14.3-10.5 18.1-18.1 2.7-5.6 2.9-6.8 2.9-17.5 0-11-.1-11.8-3.1-17.5-3.9-7.4-11.6-14.8-19.2-18.3-5.1-2.4-7.1-2.7-18.9-3l-13.3-.4V285.6c0-263.2.4-245.8-5.6-258-5.4-11.1-16.5-20.5-29.3-24.8L846.5.5l-371-.1C271.4.3 101.8.6 98.5 1zm751.2 23.8c6.6 3.5 11 7.9 14 14l2.8 5.7.3 241.2.2 241.3h-9V34H86v493h-9l-.2-239.8c-.2-188.3 0-240.7.9-244.3 2.4-8.6 9.7-16.1 19-19.5 3.2-1.1 64.7-1.3 376.3-1.1l372.5.2 4.2 2.3zM837 291.5V527H107V56h730v235.5zM383.8 554.4c0 3.4.7 7.9 1.5 9.8 2 4.9 8.2 11.5 13.1 14.1l4.1 2.2H473c70.4 0 70.5 0 74.6-2.2 9.4-5 14.5-13.4 14.8-24l.1-6.3 174 .2c168.9.3 174.1.4 177.8 2.2 5.8 2.9 9.2 8.6 9.2 15.7 0 4.9-.4 6.3-3.1 9.5-1.7 2.1-5 4.9-7.4 6.1l-4.3 2.3H472.8c-390 0-436.3-.2-439.5-1.5-5-2.1-7.2-4.2-9.4-9-4.5-9.8.2-20.6 10.6-24.3 2.1-.7 56.5-1.1 176.1-1.1l173.2-.1v6.4z"/></svg>