<svg xmlns="http://www.w3.org/2000/svg" width="60" height="36.858" version="1.0" viewBox="0 0 993 610"><path d="M64.8 1C59 2 54.4 4.7 49.7 10 42.5 17.9 43-2.2 43 265.2V506h-9.8c-6.3 0-11.5.6-14.5 1.6-6.2 2.1-13.5 8.7-16.3 14.9-2.2 4.7-2.4 6.1-2.4 24.6 0 22.6 1.1 28.2 7.8 38.5 7 10.8 16.8 18.1 29.7 22.1 5.8 1.7 22.1 1.8 458.5 1.8s452.7-.1 458.5-1.8c9.7-3 15.6-6.6 22.6-13.6 7-7 10.6-13 13.5-22.6 1.5-4.8 1.8-9.6 1.9-24.5 0-17.2-.2-18.9-2.3-23.5-5.6-12.3-14.9-17.5-31.2-17.5h-10V265.2c0-269.2.6-247.3-7.1-255.7-2.3-2.4-6.2-5.4-8.7-6.7L928.5.5 499 .4C262.8.3 67.4.6 64.8 1zm336.5 43.7c3.1 18.7 4.7 22.8 9.7 25.5 3.3 1.7 7.7 1.8 85 1.8s81.7-.1 85-1.8c5-2.7 6.6-6.8 9.7-25.5l2.8-16.7H921v478H756c-176.1 0-168-.2-172.1 4.6-.8.9-2.1 3.7-2.9 6.3-1.2 3.7-2.3 5-5.5 6.6-3.9 1.9-6 2-79.5 2-68.9 0-75.8-.1-79.2-1.7-2.3-1-4.2-2.8-4.9-4.5-3.1-7.8-4.1-9.5-7.1-11.3-3.3-2-5.4-2-168.5-2H71V28h327.5l2.8 16.7zm163.2-13.5c-.3 1.8-.9 5.3-1.3 7.8l-.8 4.5H429.6l-.8-4.5c-.4-2.5-1-6-1.3-7.8l-.6-3.2h138.2l-.6 3.2zM388 534.9c0 2.1 8.4 10 13.7 12.8 11.2 5.9 9.7 5.8 94.8 5.8 78 0 78 0 85.1-2.2 8.7-2.8 15.8-7.4 19.9-13l3-4.2h179.8L964 534v14.7c0 12.2-.4 15.5-1.9 18.8-2.2 5-8.6 10.8-13.7 12.6-3.3 1.2-75.1 1.4-452.4 1.4-377.3 0-449.1-.2-452.4-1.4-5.1-1.8-11.5-7.6-13.7-12.6-1.5-3.3-1.9-6.6-1.9-18.8V534h180c99.7 0 180 .4 180 .9z"/><path d="M621.7 40.8c-6.1 3.8-8.2 13.7-4.2 19.8 3.6 5.6 5.1 5.9 29.5 6.2 13.9.2 23.9-.1 26-.7 11.3-3.4 13.6-19.1 3.7-25.1-2.9-1.8-5.1-2-27.7-2-21.4.1-24.8.3-27.3 1.8z"/></svg>