<svg xmlns="http://www.w3.org/2000/svg" width="1028" height="1706.667" version="1.0" viewBox="0 0 771 1280"><path d="M59.5 1c-15.7.7-18.8 1.5-29.7 8.7-15 9.8-26.3 26.8-27.9 42C.7 63.1.8 1223.1 2 1230.4c1.3 8.3 8.2 21.6 14.9 28.9 6.3 6.8 17.3 14.4 25.9 17.9l5.7 2.3 331.5.3c208.8.1 334.1-.1 338.5-.7 23.4-3.3 47.1-27.6 49.6-50.8 1-10.2 1-1166.4 0-1176.6C766.2 33.9 752 15 733.6 5.9c-8.9-4.4-8.9-4.4-23-5.1C693.4 0 79.2.1 59.5 1zm534 42.9 118 .6 3.6 2.2c2 1.3 4.9 4.2 6.5 6.5l2.9 4.1.8 291.4c.4 160.2.4 422.4 0 582.6l-.8 291.3-2.5 3.7c-1.4 2.1-4.3 5-6.4 6.5l-3.9 2.7-113.1.8c-129.7.9-531.9 0-538.5-1.3-6.5-1.2-13.1-8.1-14.2-14.8-1.2-7.7-2.1-719.6-1.2-955.8l.8-207 2.5-3.7c1.4-2.1 4.3-5 6.4-6.5l3.9-2.7 125.1-.5c185.6-.8 279-.8 410.1-.1z"/><path d="M309.9 87.3c-2.9 1.6-5.4 4-7.4 7.2-2.7 4.3-3 5.7-3 12.6 0 7 .3 8.1 3 12 1.7 2.4 4.6 5.2 6.5 6.4 3.4 2 5 2 75 2.3l71.5.2 4.5-2.2c6.4-3.3 10-8.9 10.7-16.6.9-9.4-1.9-15.5-9.8-21.5l-3.6-2.7h-143l-4.4 2.3zM371.5 1110.4c-13.1 4.1-24.1 15.6-28 29.1-1.3 4.2-1.6 8.3-1.3 15.4.5 11.8 3.2 18.5 10.9 26.6 9.6 10.2 19.3 13.9 34.2 13.3 12.1-.6 18.9-3.2 26.7-10.4 10.6-9.9 14.5-19.5 13.8-34.7-.5-11.8-3.2-18.8-10.1-26.3-6.1-6.7-10.5-9.6-18.6-12.4-7-2.3-21.1-2.7-27.6-.6z"/></svg>