<svg xmlns="http://www.w3.org/2000/svg" width="1008" height="1706.667" version="1.0" viewBox="0 0 756 1280"><path d="M51.4 3C28.1 6.4 8.6 24 2.5 47 .3 55.3.3 1224.7 2.5 1233c5.4 20.5 20.9 36.2 42 42.7 5.8 1.7 18.4 1.8 333.5 1.8s327.7-.1 333.5-1.8c20.9-6.5 36.8-22.5 41.9-42.3 1.5-5.6 1.6-60.7 1.6-593.4 0-532.7-.1-587.8-1.6-593.4C748.3 27 733.1 11.4 712 4.3c-5.3-1.7-17.4-1.8-330.5-1.9-178.7-.1-327.3.2-330.1.6zm650.5 46.8c1.9.9 4.4 3 5.5 4.5 2.1 2.8 2.1 3.9 2.4 66.3l.2 63.4H46l.2-63.4c.3-62.4.3-63.5 2.4-66.3 1.1-1.5 3.6-3.6 5.5-4.5C57.3 48.1 74.8 48 378 48s320.7.1 323.9 1.8zM710 623v415H46V208h664v415zm-.2 519.4c-.3 79.6-.3 80.5-2.4 83.3-1.1 1.5-3.6 3.6-5.5 4.5-3.2 1.7-20.7 1.8-323.9 1.8s-320.7-.1-323.9-1.8c-1.9-.9-4.4-3-5.5-4.5-2.1-2.8-2.1-3.7-2.4-83.3L46 1062h664l-.2 80.4z"/><path d="M334.4 105.4c-3.9 3.9-4.5 8.6-1.8 13.7 2.9 5.7 4.6 5.9 45.4 5.9s42.5-.2 45.4-5.9c2.7-5.1 2.1-9.8-1.8-13.7l-3.4-3.4h-80.4l-3.4 3.4zM364.1 1095.6c-8.5 2.3-15 6.3-22.7 13.9-8.2 8.1-11.9 15.2-14.2 26.9-5.1 25.6 11.9 52.4 37.3 59.1 7.6 1.9 19.4 1.9 27 0 25.4-6.7 42.4-33.5 37.3-59.2-2.3-11.7-6-18.6-14.2-26.9-7.6-7.6-14.1-11.5-23.3-13.9-7.1-1.9-20.1-1.8-27.2.1zm26.5 24.7c9.8 5 15.5 14.3 15.5 25.2 0 10.9-5.6 20.1-15.5 25.3-6.9 3.6-18 3.8-24.3.4-10.8-5.7-16.4-14.4-16.4-25.6 0-13.1 7.8-23.3 21.1-27.7 4.6-1.5 14.2-.3 19.6 2.4z"/></svg>