<svg xmlns="http://www.w3.org/2000/svg" width="938.667" height="1537.333" version="1.0" viewBox="0 0 704 1153"><path d="M105.6 1.6C80.6 6.1 57.2 18.7 38 38 18.9 57.1 7.2 78.4 2 103.9c-2 9.9-2 12.7-2 471.4 0 507.8-.5 468.5 6 487.9 6.4 19.2 16.7 35.6 32 50.8 15.2 15.3 31.6 25.6 50.8 32 19 6.4 3.1 6 263.2 6 260.1 0 244.2.4 263.2-6 19.2-6.4 35.6-16.7 50.8-32 15.3-15.2 25.6-31.6 32-50.8 6.5-19.4 6 19.9 6-487.2 0-507.1.5-467.8-6-487.2-6.4-19.2-16.7-35.5-32-50.8-15.1-15.2-31.5-25.5-50.8-32-19.1-6.4-2.9-6-264.1-5.9-201.2.1-238.8.3-245.5 1.5zm484.7 64.6c22.7 6.9 41.3 25.6 47.4 47.9 1.7 6.1 1.8 30 1.8 461.9 0 428-.1 455.9-1.7 461.7-6.3 22.7-25.3 41.8-47.9 48-6 1.7-19.9 1.8-237.9 1.8s-231.9-.1-237.9-1.8c-22.3-6.1-41-24.6-47.9-47.4-1.6-5.5-1.7-31.6-2-455.3-.2-308 .1-452.6.8-459.4 1.6-15.7 7.6-28 19.1-39.5 10.5-10.5 23.6-17.3 36.5-19 3.9-.5 106.5-.8 235.4-.7 213.6.1 228.9.2 234.3 1.8z"/><path d="M341.7 909c-34.2 4.2-61.8 28.6-70.8 62.5-2.9 11.2-2.9 29.8 0 41 8 30.4 30.2 52.6 60.6 60.6 11.2 2.9 29.8 2.9 41 0 24.9-6.6 44.2-22.4 55-45.2 5.7-12 7.7-21.4 7.7-35.9 0-18.9-4.9-34.4-15.6-49.4-17-23.8-48-37.2-77.9-33.6z"/></svg>