<svg xmlns="http://www.w3.org/2000/svg" width="998.667" height="1705.333" version="1.0" viewBox="0 0 749 1279"><path d="M111.1 1.6c-4.6.8-13 3-18.7 4.9C46.3 21.9 13.2 59.9 3.3 108.7c-1.7 8.4-1.8 33.6-1.8 531.3 0 497.7.1 522.9 1.8 531.3 10.9 53.4 50.1 94.3 101.7 105.8 8.2 1.8 17 1.9 270 1.9s261.8-.1 270-1.9c51.6-11.5 90.8-52.4 101.7-105.8 1.7-8.4 1.8-33.6 1.8-531.3 0-497.7-.1-522.9-1.8-531.3-9.9-48.8-43-86.8-89-102.2C637-.4 655.7 0 374 .1 160.1.2 118.2.4 111.1 1.6zm519.6 54c16.7 3.4 30.2 11.1 42.5 24.3 8.8 9.4 15.3 21.1 19.1 34.6l2.2 8 .3 445.2.2 445.3H55l.2-445.2.3-445.3 2.2-8c1.3-4.4 4.3-12.1 6.8-17.2 7.9-16.1 24.5-31.2 41.2-37.7 14.7-5.8-1-5.4 268.6-5.5 223-.1 249.6.1 256.4 1.5zm64.1 1056.6c-.5 42.3-.6 45.8-2.6 53.3-8.1 30.1-31.7 52.8-61.5 58.9-6.8 1.4-33.6 1.6-255.7 1.6-271.6 0-254.6.4-269.8-5.7-16.5-6.7-32.9-21.7-40.7-37.6-8.5-17.4-8.7-18.9-9.3-70.5l-.4-45.2h640.4l-.4 45.2z"/><path d="M366.2 1107.1c-10.9 2.1-22.9 11.9-28 22.7-2.4 5.1-2.7 6.9-2.7 16.7 0 10.3.2 11.4 3.2 17.7 3.9 8.4 10.3 14.7 19.1 19 6.2 3.1 7.3 3.3 17.2 3.3 9.9 0 11-.2 17.2-3.3 8.8-4.3 15.2-10.6 19.1-19 3-6.3 3.2-7.4 3.2-17.7 0-9.8-.3-11.6-2.7-16.7-8-17-26.8-26.4-45.6-22.7z"/></svg>