<svg xmlns="http://www.w3.org/2000/svg" width="60" height="78.085" version="1.0" viewBox="0 0 982 1278"><path d="M58 2C34.1 8.2 14.5 25.7 6 48.5.7 63 1 23.9 1 640c0 505 .2 571.7 1.5 578.7 4.6 24.3 18.8 42.8 41.5 54.1l9.5 4.7h875l8.5-4.1c22.6-10.9 37.9-30.5 42.5-54.6 1.3-7.1 1.5-71 1.5-578.8 0-507.8-.2-571.7-1.5-578.8-1.7-8.6-2.9-12.2-7.7-21.6-9.1-18.1-27.2-32.2-48.2-37.6-7.9-2-10-2-433-1.9C74.1.1 65.3.1 58 2zm847 111v37H77V76h828v37zm0 508.5V1054H77V189h828v432.5zm0 526.5v56H77v-112h828v56z"/><path d="M453 1148.5v19.5h76v-39h-76v19.5z"/></svg>