<svg xmlns="http://www.w3.org/2000/svg" width="1140" height="1421.333" version="1.0" viewBox="0 0 855 1066"><path d="M122 1.7c-31.7 3.2-58.6 15.5-81 37C19.8 59 6.3 85 1.5 114.5c-2.2 13.6-2.2 827.4 0 841 6.9 42.6 32 77.6 70.6 98.4 4.1 2.2 12.4 5.7 18.4 7.8l11 3.8 324 .3 324 .2 9-2.5c11.4-3.2 32.8-13.8 42-20.7 26.9-20.1 45.3-49.7 52.2-83.5 1.7-8.4 1.8-29.3 1.8-424.3s-.1-415.9-1.8-424.3c-8.6-42.1-34.4-76.5-71.2-95-11.3-5.6-20.8-9-33.3-11.9l-9.7-2.2L432 1.4c-168.6 0-308.1.1-310 .3zm616.5 55.7c9.8 2.5 25.9 10.5 33.2 16.6 12.2 10.1 22.1 26.1 26.3 42.4 2 7.9 2 10.1 2 418.6s0 410.7-2 418.6c-7.5 29.5-30.8 52.2-60.5 59.1-7.7 1.7-20.2 1.8-311 1.8h-303l-8.5-2.3c-17-4.5-32.5-14.5-43.3-27.7-5.5-6.9-12.7-21-15.4-30.5-1.7-6.3-1.8-21.8-2.1-415-.2-450.7-.7-417.7 6-433.8 11.2-27 36.9-46.4 65.1-49.1 4.5-.5 142.8-.8 307.2-.7 284.2.2 299.3.3 306 2z"/><path d="M337.6 109.5c-19.9 7.1-23.8 34.2-6.8 47.2 2.3 1.8 5.9 3.7 8 4.3 2.4.6 33.1 1 88.2 1s85.8-.4 88.2-1c5.3-1.5 11.8-6.8 15.3-12.5 2.7-4.4 3-5.6 3-13.5s-.3-9.1-3-13.5c-3.5-5.7-10-11-15.3-12.5-2.4-.6-33.1-1-88.7-1-70.4.1-85.7.3-88.9 1.5zM412.1 856.6c-8 2.1-14.7 6.1-22.4 13.3-10.4 9.8-16.7 24.5-16.7 39.1 0 6.4 3.4 19 6.7 25.3 3.8 7.1 14.5 17.6 21.9 21.5 31.7 16.6 70.6-1.5 77.9-36.3 2.7-12.9 1.5-22.6-4.5-35.1-6.4-13.3-19.6-24.2-33.5-27.9-7.4-1.9-22.2-1.9-29.4.1z"/></svg>