<svg xmlns="http://www.w3.org/2000/svg" width="60" height="80" version="1.0" viewBox="0 0 960 1280"><path d="M97.7 1.6c-47.4 8.6-86 46.5-95.6 94.1L0 105.8v1068.4l2.1 10.1c8.5 42.2 39.4 76.8 80.4 90.2 18.1 5.9-8.5 5.5 397.5 5.5 330.9 0 373.7-.2 381.6-1.5 47.9-8.4 86.6-46.2 96.3-94.2l2.1-10.1V105.8l-2.1-10.1c-9.8-48.2-48.3-85.8-96.3-94.2C853.7.2 811 0 479.1.1 161.3.2 104.3.4 97.7 1.6zM844.5 81c9.5 1.4 16.5 4.9 23.1 11.4 6.5 6.6 10 13.6 11.4 23.1 1.3 9.7 1.3 1039.3 0 1049-1.4 9.5-4.9 16.5-11.4 23.1-6.6 6.5-13.6 10-23.1 11.4-9.7 1.3-719.3 1.3-729 0-9.5-1.4-16.5-4.9-23.1-11.4-6.5-6.6-10-13.6-11.4-23.1-1.3-9.7-1.3-1039.3 0-1049 1.4-9.5 4.9-16.5 11.4-23.1 6.4-6.3 13.8-10.1 22.2-11.3 8.6-1.3 721.2-1.3 729.9-.1z"/><path d="M387.3 121.4c-10 3.2-19 11.3-24.1 21.6-2.5 5-2.7 6.5-2.7 17 0 10.7.2 11.9 2.9 17.5 3.8 7.7 11.4 15.3 19.1 19.1l6 2.9h183l6-2.9c7.7-3.8 15.3-11.4 19.1-19.1 2.7-5.6 2.9-6.8 2.9-17.5s-.2-11.9-2.9-17.5c-3.8-7.7-11.4-15.3-19.1-19.1l-6-2.9-90-.2c-72.8-.2-90.8.1-94.2 1.1zM460 1002c-28.2 7.3-50.9 30.1-58 58.4-2.7 10.9-2.7 28.3 0 39.2 5.6 22.2 21.1 41.7 41.5 51.9 12.5 6.3 22 8.5 36.5 8.5 14.6 0 24-2.2 37-8.7 8.1-4 10.9-6.2 19.5-14.8 8.6-8.6 10.8-11.4 14.8-19.5 6.5-13 8.7-22.4 8.7-37 0-14.5-2.2-23.8-8.6-37-4.1-8.2-6.1-10.8-14.8-19.5-8.6-8.6-11.5-10.8-19.6-14.8-13.3-6.6-22.4-8.7-37.4-8.6-8.6 0-14.3.6-19.6 1.9z"/></svg>